<svg width="24" height="24" viewBox="0 0 24 24" fill="none" xmlns="http://www.w3.org/2000/svg">
<path fill-rule="evenodd" clip-rule="evenodd" d="M15.3542 11.25C14.3153 10.3553 13.25 8.95776 13.25 7H14.75C14.75 8.43339 15.5629 9.49103 16.4729 10.2304C16.9237 10.5967 17.3783 10.867 17.7214 11.0458C17.8922 11.1347 18.0329 11.1997 18.1287 11.2416C18.1766 11.2625 18.213 11.2776 18.2361 11.2869L18.2605 11.2966L18.2633 11.2978L18.2647 11.2983L19.8737 11.9017L18.3363 12.6704L18.3304 12.6734L18.3037 12.6872C18.279 12.7002 18.2409 12.7205 18.1914 12.748C18.0921 12.8029 17.9474 12.886 17.7725 12.9954C17.4211 13.215 16.9557 13.5353 16.4939 13.9394C15.5387 14.7752 14.75 15.8348 14.75 17H13.25C13.25 15.1652 14.4613 13.7248 15.5061 12.8106C15.5294 12.7902 15.5527 12.77 15.576 12.75H4V11.25H15.3542Z" fill="black"/>
</svg>
